<?xml version="1.0" encoding="UTF-8"?>
<svg version="1.1" viewBox="0 0 24 24" xmlns="http://www.w3.org/2000/svg" xmlns:xlink="http://www.w3.org/1999/xlink">
    <defs>
        <path id="path-1" d="M13,0h-13"></path>
    </defs>
    <g fill="none" stroke="#2e3b84" stroke-linejoin="round" stroke-width="1">
        <path stroke-linecap="round" d="M13,21c0,1.104 -0.896,2 -2,2h-9c-1.104,0 -2,-0.896 -2,-2v-19c0,-1.104 0.896,-2 2,-2h9c1.104,0 2,0.896 2,2v19Z" transform="translate(5.5, 0.5)"></path>
        <use stroke-linecap="round" transform="translate(5.5, 19.5)" xlink:href="#path-1"></use>
        <use stroke-linecap="round" transform="translate(5.5, 4.5)" xlink:href="#path-1"></use>
        <path stroke-linecap="round" d="M0,0h5" transform="translate(9.5, 2.5)"></path>
        <path d="M0.5,1c-0.276,0 -0.5,-0.224 -0.5,-0.5v0c0,-0.276 0.224,-0.5 0.5,-0.5v0c0.276,0 0.5,0.224 0.5,0.5v0c0,0.276 -0.223,0.5 -0.5,0.5v0Z" transform="translate(11.5, 21)"></path>
    </g>
    <path fill="none" d="M0,0h24v24h-24Z"></path>
</svg>
